<<<<<<< HEAD
<mxfile host="Electron" modified="2023-12-07T19:48:25.768Z" agent="5.0 (Windows NT 10.0; Win64; x64) AppleWebKit/537.36 (KHTML, like Gecko) draw.io/20.8.16 Chrome/106.0.5249.199 Electron/21.4.0 Safari/537.36" etag="oTK7bzKdoTfDLKQd4wIj" version="20.8.16" type="device"><diagram id="C5RBs43oDa-KdzZeNtuy" name="Page-1">7Z1tb9s4EoB/jYG7AxLo1S8fbafp7ibtZpt2u/vpwFiMrYss+iSmjvPrj5RIvY5kOwnp4MqiCExKoiTOI85wZkQN3Pn66WOCNqtPJMDRwLGCp4F7MXCckcP+8PIuL0/8YV6xTMIgr7LLitvwGYtKS9Q+hgFOaztSQiIabuqVCxLHeEFrdShJyLa+2z2J6mfdoKU4o1VW3C5QhFu7fQ8Dusprx86orP8Fh8uVPLM9nORb1kjuLBpOVygg20qV+2HgzhNCaP5r/TTHEe862S/ff919j64fhh9/+yP9L/o2u/r6+c+zvLHLYw4pbiHBMX1x088P95e//On956/NzeUfW+vj9O63M3GI9QNFj6K/vqU4EfdLd7IT0224jlDMSrN7EtNbscVlZRSFy5j9XrBrY0e6sx84oSHr/6nYQMmG1S5WYRRcox155HeQUrR4kKXZiiThM2sWRWyTzSrY5oQKlJxhbY9bfiSrtlhtglO2z43sFruoukYpFfssSBShTRreZRfMd1mjZBnGM0IpWcuGyGMc4ECUCjlnBZqQh4IcW3TAJVqHEX8gPmLCWkOs+kAZCVnyTsJPFUKFzFh7a0yTHdtFbPVsPz9EPH++K2S2LWkeSkRXFZJdWYnEE7Qs2i5O94U9cShesr4pzufI9sX5bK99PnsInM8Z1k+HIsZDjCie8d5Nq2yyH5VbLasyYmF6Z9+/ffLde+dq7Lp34dWMPl/RM7dF7xmXwYrE+PPj+o6DzGQ4ZX9vaRLGyxbXTAa0wnCE72knwekGLVgb19k+F15Z80X0Aa8i7Nj7KKNnFQYBjjO6KKIoB5AjtSFhTLNO8mfsP+vKuXXuD3x2QXNWtssy+893T+icxAxEFGZoYUb3FnPCaw/jUWz2Dgb72dzVRb4PxSYaVRJrTBwLgAcCgNcojIzolYred/SJ/go/3355mF+sLv+dLNx1/Lf3uw1oruzZR2m6JUlgpK9U+qOxPumDV9x+8FsijsLMXlnRdWlWNHX5HvmvmSR5c1LgXzkPF2d2Cwq3DYULABChOxzdkDSkIeHtJ/m+DTD2yV6VUG3LO0yqY0WjuT0BpMpu1+I26T/+Wdz6z/cc34dRNCcRSbK7dofBeDT0CqIrW9yp77myoUr9ffZPJTy2RoUA0uO0NUKFHnYoE45jxWiN818Rk8LnolQzGuelEcF/LkK6y3+hIGAzjHT/IVIPGWjfNbSuRj0GQ2t3QLvE9Kbkiw1+xqBRadDYwwN1nzoSnG4SPvCBxTCgmoHJgZ4VZXOavsFAKBRDgWqfhn1qp4bjd2CQdumEH4SbN4aDN+XAO7lBC01yBQdNjWAIUOHd1Ggdgvqg7d8uB4K2PjAMKGBgotEuBC952GJguliQR3abTVGbIN3JgnS+DJLJIPmwrTzcEYCNJwf544J0diNI547fcZAOjtKhnOJGnC4EuDZDGDQevCZIB6KozI5x2/YsB4BsY5zk2QZC+GDqgZH+q6QPxOk0Sx+O0YrH/+tug82EVikBQKxOMwFtE4YTcIeYsbIopR+QR979RvpvKn0oqKdX/H5Hlg5ZPGB6HbJOkgRMkwTt8pphxPvuJtuHlZZ08PPGUZShAWSSKUMDvGQo3tuQ8c8exT9eqv6B9p6qKL7X5bUQ81YTyC8jnKPh0BqjARAT9Vznwh8NXh0TPZ4fIBKmV2F4XX5PCVBl5jCvm5IGrXeNFhBg04xWV2hliem06pCouFWNS+LtXRJAjE0zCO05SQHC73J4qUBgXBMKKAAibJopGO0dDrhWYRzMncHUeCmUeilP7abwxt0wzHJfRR0E47BQAgIQcdMMQlcacto2Eio4mPDr28NQvMN2Ou9VV1ZxWjcUDAhqQfBObTH6Xcl5aY+tYFBQgIJ8I/10KDjdKICWgsFAAQYTjQYjeMl2e/Zwg5OUxC1Rm8yc02XmWMKaE9gUCr2Cjec6bWy8UQ833Zk5vmz/fb0+DwPcnvGc5cdIt8c1MTPdPQNXMQq8JiEHJFCZ/oJfnc7fjDNODpWiB7Jx9Iq+bblw0ZevQhrxqxQ/kIqjV/xwJl7+fqsRvUrRQ3k4emUPZ2EVbzQb8SsVP5Bro0z84DU7UFpGQ8o/e7LNC+QKZNuAclW2ZgYgVe6KyGeiJtemsv4Am9GNRwXT1fUHbM/1vcGrEyJegA+QbKNXK3RFQAU/b7pshoHxfcMIpOfohRGOwOaO1CwO+2v1fUfjnFDhnABSc/RCAEdfKxDw0ccsg6AcBCA7Ry8INhx6rZBwLXSRoUG9z/LUrgsbtnQrNMyZvWFIUE4CkJ+jmYS2E7NBwjS3Nw0MqmGA8nM0wwC/LCBhSBs2o4nEq6AASM7RTAGc11+hoGEmGA5UcABk5mjmAE7rr3AAmIyGBRUsAOk5mlmAXVsVFhoGo+FAAQfFAjen46Dfq5RC5qJBQQUKh6Zeqct+OCAGhuNgyj87xEp3EeHJcjNWJbLpbCsvXob8xIeku9Vz43CwxFIEOLoj2w9lxSyrYBskUdmp2G3/xQ8+9yYTWfE3b/vcYiOsqLh4ku1npV21dIOTkPUezy3MKtvi7Uu0oyhh86kDni5+Z70QQPlvCY4QDX9UD+zNt7sh2cuYMtdu5HjncqGt5tdxZCspeUwWWBxY4nNIW578EpRsK++MVltvtVCW0zZe5AIYDUZNPunJ8kmHXv1zTLZvtY1eOMFTOlT/f5d68+H8IpNZ2INl/1DwmqTSg6h4u9Qys8rTCcUPJJbqFb9j1vJRIFYgYRQUq6rsIr8zPSQzTEx6UZmfgSzfcYKC6Wqux4V9aVmDYzI63gif8cmVQtc79YIfbhkYht41Q9CHnTRD1LUeVJkLYpbnUG1gQJ9K0ovBsOfrKGZ9Do0kADmrmknoWZOhPSAYX64KCIBcUc1aoWeVFvMSvja3A5AuqpcDF5qidPv0gxCtSRx8XYXxoOrKtwdVP7/j1eepDS9+6ZX3BxWffOmB7/DHP4W0chgrCU++b4tyeSAvVI97nRs/94Ln+/V9aabq7u9bpuE03v6653U8eqmrf1T3qE6k80STn99tT4rsFrKNgalw5zcf+H0Okn53SH2eEZPMP6NwuKo8UscBfLiDftTwl4+BqCP4AZ8e7/zrBqi2ouJx5/Nz9sfI/e3k3vwED7S6JCR3S5HcPchKPV4xWccoJlDBWP3KpUOZ2XuU2csVUK/p8b41kHc+boT/vPHk3G20dHjMudGYO2wMQoo1kdeeUpsRSZkmsl3AH6tVFckhEVJF/zKCVyZ4b6xMF7FiQgitjgsJ2qw+kQDzPf4H</diagram></mxfile>
=======
<mxfile host="drawio-plugin" modified="2023-12-12T20:48:58.657Z" agent="5.0 (Macintosh; Intel Mac OS X 10_15_7) AppleWebKit/537.36 (KHTML, like Gecko) Chrome/111.0.0.0 Safari/537.36" etag="VX5pN7ixCap-3-78hXhs" version="20.5.3" type="embed"><diagram id="C5RBs43oDa-KdzZeNtuy" name="Page-1"><mxGraphModel dx="90" dy="1040" grid="1" gridSize="10" guides="1" tooltips="1" connect="1" arrows="1" fold="1" page="0" pageScale="1" pageWidth="827" pageHeight="1169" math="0" shadow="0"><root><mxCell id="WIyWlLk6GJQsqaUBKTNV-0"/><mxCell id="WIyWlLk6GJQsqaUBKTNV-1" parent="WIyWlLk6GJQsqaUBKTNV-0"/><mxCell id="zkfFHV4jXpPFQw0GAbJ--0" value="User" style="swimlane;fontStyle=3;align=center;verticalAlign=top;childLayout=stackLayout;horizontal=1;startSize=26;horizontalStack=0;resizeParent=1;resizeLast=0;collapsible=1;marginBottom=0;rounded=0;shadow=0;strokeWidth=1;fontFamily=Georgia;" parent="WIyWlLk6GJQsqaUBKTNV-1" vertex="1"><mxGeometry x="415" y="530" width="620" height="320" as="geometry"><mxRectangle x="230" y="140" width="160" height="26" as="alternateBounds"/></mxGeometry></mxCell><mxCell id="BWUM53f2K833biKBtzKt-3" value="- phoneNumber : String" style="text;align=left;verticalAlign=top;spacingLeft=4;spacingRight=4;overflow=hidden;rotatable=0;points=[[0,0.5],[1,0.5]];portConstraint=eastwest;fontStyle=1;fontFamily=Georgia;" parent="zkfFHV4jXpPFQw0GAbJ--0" vertex="1"><mxGeometry y="26" width="620" height="26" as="geometry"/></mxCell><mxCell id="BWUM53f2K833biKBtzKt-4" value="- email : String" style="text;align=left;verticalAlign=top;spacingLeft=4;spacingRight=4;overflow=hidden;rotatable=0;points=[[0,0.5],[1,0.5]];portConstraint=eastwest;fontStyle=1;fontFamily=Georgia;" parent="zkfFHV4jXpPFQw0GAbJ--0" vertex="1"><mxGeometry y="52" width="620" height="26" as="geometry"/></mxCell><mxCell id="KezSRkCDhF_rc3mnY4O1-0" value="- password : String" style="text;align=left;verticalAlign=top;spacingLeft=4;spacingRight=4;overflow=hidden;rotatable=0;points=[[0,0.5],[1,0.5]];portConstraint=eastwest;fontStyle=1;fontFamily=Georgia;" parent="zkfFHV4jXpPFQw0GAbJ--0" vertex="1"><mxGeometry y="78" width="620" height="26" as="geometry"/></mxCell><mxCell id="zkfFHV4jXpPFQw0GAbJ--4" value="" style="line;html=1;strokeWidth=1;align=left;verticalAlign=middle;spacingTop=-1;spacingLeft=3;spacingRight=3;rotatable=0;labelPosition=right;points=[];portConstraint=eastwest;" parent="zkfFHV4jXpPFQw0GAbJ--0" vertex="1"><mxGeometry y="104" width="620" height="8" as="geometry"/></mxCell><mxCell id="BWUM53f2K833biKBtzKt-19" value="+ User();" style="text;align=left;verticalAlign=top;spacingLeft=4;spacingRight=4;overflow=hidden;rotatable=0;points=[[0,0.5],[1,0.5]];portConstraint=eastwest;fontStyle=1;fontFamily=Georgia;fillColor=#6d8764;strokeColor=#3A5431;fontColor=#ffffff;" parent="zkfFHV4jXpPFQw0GAbJ--0" vertex="1"><mxGeometry y="112" width="620" height="26" as="geometry"/></mxCell><mxCell id="BWUM53f2K833biKBtzKt-20" value="+ User(id, name, lastName, phoneNumber, email, city, address, phoneNumber, email, password);" style="text;align=left;verticalAlign=top;spacingLeft=4;spacingRight=4;overflow=hidden;rotatable=0;points=[[0,0.5],[1,0.5]];portConstraint=eastwest;fontStyle=1;fontFamily=Georgia;fillColor=#6d8764;strokeColor=#3A5431;fontColor=#ffffff;" parent="zkfFHV4jXpPFQw0GAbJ--0" vertex="1"><mxGeometry y="138" width="620" height="26" as="geometry"/></mxCell><mxCell id="BWUM53f2K833biKBtzKt-21" value="+ getPhoneNumber() : String" style="text;align=left;verticalAlign=top;spacingLeft=4;spacingRight=4;overflow=hidden;rotatable=0;points=[[0,0.5],[1,0.5]];portConstraint=eastwest;fontStyle=1;fontFamily=Georgia;" parent="zkfFHV4jXpPFQw0GAbJ--0" vertex="1"><mxGeometry y="164" width="620" height="26" as="geometry"/></mxCell><mxCell id="BWUM53f2K833biKBtzKt-22" value="+ getEmail() : String" style="text;align=left;verticalAlign=top;spacingLeft=4;spacingRight=4;overflow=hidden;rotatable=0;points=[[0,0.5],[1,0.5]];portConstraint=eastwest;fontStyle=1;fontFamily=Georgia;" parent="zkfFHV4jXpPFQw0GAbJ--0" vertex="1"><mxGeometry y="190" width="620" height="26" as="geometry"/></mxCell><mxCell id="KezSRkCDhF_rc3mnY4O1-1" value="+ getPassword() : String" style="text;align=left;verticalAlign=top;spacingLeft=4;spacingRight=4;overflow=hidden;rotatable=0;points=[[0,0.5],[1,0.5]];portConstraint=eastwest;fontStyle=1;fontFamily=Georgia;" parent="zkfFHV4jXpPFQw0GAbJ--0" vertex="1"><mxGeometry y="216" width="620" height="26" as="geometry"/></mxCell><mxCell id="BWUM53f2K833biKBtzKt-25" value="+ setPhoneNumber() : void" style="text;align=left;verticalAlign=top;spacingLeft=4;spacingRight=4;overflow=hidden;rotatable=0;points=[[0,0.5],[1,0.5]];portConstraint=eastwest;fontStyle=1;fontFamily=Georgia;" parent="zkfFHV4jXpPFQw0GAbJ--0" vertex="1"><mxGeometry y="242" width="620" height="26" as="geometry"/></mxCell><mxCell id="BWUM53f2K833biKBtzKt-24" value="+ setEmail() : void" style="text;align=left;verticalAlign=top;spacingLeft=4;spacingRight=4;overflow=hidden;rotatable=0;points=[[0,0.5],[1,0.5]];portConstraint=eastwest;fontStyle=1;fontFamily=Georgia;" parent="zkfFHV4jXpPFQw0GAbJ--0" vertex="1"><mxGeometry y="268" width="620" height="26" as="geometry"/></mxCell><mxCell id="KezSRkCDhF_rc3mnY4O1-3" value="+ setPassword() : void" style="text;align=left;verticalAlign=top;spacingLeft=4;spacingRight=4;overflow=hidden;rotatable=0;points=[[0,0.5],[1,0.5]];portConstraint=eastwest;fontStyle=1;fontFamily=Georgia;" parent="zkfFHV4jXpPFQw0GAbJ--0" vertex="1"><mxGeometry y="294" width="620" height="26" as="geometry"/></mxCell><mxCell id="zkfFHV4jXpPFQw0GAbJ--6" value="Account" style="swimlane;fontStyle=3;align=center;verticalAlign=top;childLayout=stackLayout;horizontal=1;startSize=26;horizontalStack=0;resizeParent=1;resizeLast=0;collapsible=1;marginBottom=0;rounded=0;shadow=0;strokeWidth=1;fontFamily=Georgia;" parent="WIyWlLk6GJQsqaUBKTNV-1" vertex="1"><mxGeometry x="540" y="962" width="370" height="424" as="geometry"><mxRectangle x="130" y="380" width="160" height="26" as="alternateBounds"/></mxGeometry></mxCell><mxCell id="BWUM53f2K833biKBtzKt-33" value="- accountNumber : int" style="text;align=left;verticalAlign=top;spacingLeft=4;spacingRight=4;overflow=hidden;rotatable=0;points=[[0,0.5],[1,0.5]];portConstraint=eastwest;fontStyle=1;fontFamily=Georgia;" parent="zkfFHV4jXpPFQw0GAbJ--6" vertex="1"><mxGeometry y="26" width="370" height="26" as="geometry"/></mxCell><mxCell id="BWUM53f2K833biKBtzKt-35" value="- ownerUser : User" style="text;align=left;verticalAlign=top;spacingLeft=4;spacingRight=4;overflow=hidden;rotatable=0;points=[[0,0.5],[1,0.5]];portConstraint=eastwest;fontStyle=1;fontFamily=Georgia;" parent="zkfFHV4jXpPFQw0GAbJ--6" vertex="1"><mxGeometry y="52" width="370" height="26" as="geometry"/></mxCell><mxCell id="BWUM53f2K833biKBtzKt-34" value="- accountType : String" style="text;align=left;verticalAlign=top;spacingLeft=4;spacingRight=4;overflow=hidden;rotatable=0;points=[[0,0.5],[1,0.5]];portConstraint=eastwest;fontStyle=1;fontFamily=Georgia;" parent="zkfFHV4jXpPFQw0GAbJ--6" vertex="1"><mxGeometry y="78" width="370" height="26" as="geometry"/></mxCell><mxCell id="BWUM53f2K833biKBtzKt-36" value="- balance : double" style="text;align=left;verticalAlign=top;spacingLeft=4;spacingRight=4;overflow=hidden;rotatable=0;points=[[0,0.5],[1,0.5]];portConstraint=eastwest;fontStyle=1;fontFamily=Georgia;" parent="zkfFHV4jXpPFQw0GAbJ--6" vertex="1"><mxGeometry y="104" width="370" height="26" as="geometry"/></mxCell><mxCell id="BWUM53f2K833biKBtzKt-53" value="- pocketList : ArrayList&lt;Pocket&gt;" style="text;align=left;verticalAlign=top;spacingLeft=4;spacingRight=4;overflow=hidden;rotatable=0;points=[[0,0.5],[1,0.5]];portConstraint=eastwest;fontStyle=1;fontFamily=Georgia;" parent="zkfFHV4jXpPFQw0GAbJ--6" vertex="1"><mxGeometry y="130" width="370" height="26" as="geometry"/></mxCell><mxCell id="zkfFHV4jXpPFQw0GAbJ--9" value="" style="line;html=1;strokeWidth=1;align=left;verticalAlign=middle;spacingTop=-1;spacingLeft=3;spacingRight=3;rotatable=0;labelPosition=right;points=[];portConstraint=eastwest;" parent="zkfFHV4jXpPFQw0GAbJ--6" vertex="1"><mxGeometry y="156" width="370" height="8" as="geometry"/></mxCell><mxCell id="BWUM53f2K833biKBtzKt-43" value="+ Account();" style="text;align=left;verticalAlign=top;spacingLeft=4;spacingRight=4;overflow=hidden;rotatable=0;points=[[0,0.5],[1,0.5]];portConstraint=eastwest;fontStyle=1;fontFamily=Georgia;fillColor=#76608a;strokeColor=#432D57;fontColor=#ffffff;" parent="zkfFHV4jXpPFQw0GAbJ--6" vertex="1"><mxGeometry y="164" width="370" height="26" as="geometry"/></mxCell><mxCell id="BWUM53f2K833biKBtzKt-44" value="+ Account(ownerUser, accountType);" style="text;align=left;verticalAlign=top;spacingLeft=4;spacingRight=4;overflow=hidden;rotatable=0;points=[[0,0.5],[1,0.5]];portConstraint=eastwest;fontStyle=1;fontFamily=Georgia;fillColor=#76608a;strokeColor=#432D57;fontColor=#ffffff;" parent="zkfFHV4jXpPFQw0GAbJ--6" vertex="1"><mxGeometry y="190" width="370" height="26" as="geometry"/></mxCell><mxCell id="BWUM53f2K833biKBtzKt-45" value="+ getAccountNumber() : int" style="text;align=left;verticalAlign=top;spacingLeft=4;spacingRight=4;overflow=hidden;rotatable=0;points=[[0,0.5],[1,0.5]];portConstraint=eastwest;fontStyle=1;fontFamily=Georgia;" parent="zkfFHV4jXpPFQw0GAbJ--6" vertex="1"><mxGeometry y="216" width="370" height="26" as="geometry"/></mxCell><mxCell id="BWUM53f2K833biKBtzKt-46" value="+ getOwnerUser() : User" style="text;align=left;verticalAlign=top;spacingLeft=4;spacingRight=4;overflow=hidden;rotatable=0;points=[[0,0.5],[1,0.5]];portConstraint=eastwest;fontStyle=1;fontFamily=Georgia;" parent="zkfFHV4jXpPFQw0GAbJ--6" vertex="1"><mxGeometry y="242" width="370" height="26" as="geometry"/></mxCell><mxCell id="BWUM53f2K833biKBtzKt-47" value="+ getAccountType() : String" style="text;align=left;verticalAlign=top;spacingLeft=4;spacingRight=4;overflow=hidden;rotatable=0;points=[[0,0.5],[1,0.5]];portConstraint=eastwest;fontStyle=1;fontFamily=Georgia;" parent="zkfFHV4jXpPFQw0GAbJ--6" vertex="1"><mxGeometry y="268" width="370" height="26" as="geometry"/></mxCell><mxCell id="BWUM53f2K833biKBtzKt-48" value="+ getBalance() : double" style="text;align=left;verticalAlign=top;spacingLeft=4;spacingRight=4;overflow=hidden;rotatable=0;points=[[0,0.5],[1,0.5]];portConstraint=eastwest;fontStyle=1;fontFamily=Georgia;" parent="zkfFHV4jXpPFQw0GAbJ--6" vertex="1"><mxGeometry y="294" width="370" height="26" as="geometry"/></mxCell><mxCell id="BWUM53f2K833biKBtzKt-49" value="+ setAccountNumber() : void" style="text;align=left;verticalAlign=top;spacingLeft=4;spacingRight=4;overflow=hidden;rotatable=0;points=[[0,0.5],[1,0.5]];portConstraint=eastwest;fontStyle=1;fontFamily=Georgia;" parent="zkfFHV4jXpPFQw0GAbJ--6" vertex="1"><mxGeometry y="320" width="370" height="26" as="geometry"/></mxCell><mxCell id="BWUM53f2K833biKBtzKt-50" value="+ setOwnerUser() : void" style="text;align=left;verticalAlign=top;spacingLeft=4;spacingRight=4;overflow=hidden;rotatable=0;points=[[0,0.5],[1,0.5]];portConstraint=eastwest;fontStyle=1;fontFamily=Georgia;" parent="zkfFHV4jXpPFQw0GAbJ--6" vertex="1"><mxGeometry y="346" width="370" height="26" as="geometry"/></mxCell><mxCell id="BWUM53f2K833biKBtzKt-51" value="+ setAccountType() : void" style="text;align=left;verticalAlign=top;spacingLeft=4;spacingRight=4;overflow=hidden;rotatable=0;points=[[0,0.5],[1,0.5]];portConstraint=eastwest;fontStyle=1;fontFamily=Georgia;" parent="zkfFHV4jXpPFQw0GAbJ--6" vertex="1"><mxGeometry y="372" width="370" height="26" as="geometry"/></mxCell><mxCell id="BWUM53f2K833biKBtzKt-52" value="+ setBalance() : void" style="text;align=left;verticalAlign=top;spacingLeft=4;spacingRight=4;overflow=hidden;rotatable=0;points=[[0,0.5],[1,0.5]];portConstraint=eastwest;fontStyle=1;fontFamily=Georgia;" parent="zkfFHV4jXpPFQw0GAbJ--6" vertex="1"><mxGeometry y="398" width="370" height="26" as="geometry"/></mxCell><mxCell id="zkfFHV4jXpPFQw0GAbJ--17" value="Person" style="swimlane;fontStyle=3;align=center;verticalAlign=top;childLayout=stackLayout;horizontal=1;startSize=26;horizontalStack=0;resizeParent=1;resizeLast=0;collapsible=1;marginBottom=0;rounded=0;shadow=0;strokeWidth=1;fontFamily=Georgia;" parent="WIyWlLk6GJQsqaUBKTNV-1" vertex="1"><mxGeometry x="509" y="-50" width="432" height="476" as="geometry"><mxRectangle x="550" y="140" width="160" height="26" as="alternateBounds"/></mxGeometry></mxCell><mxCell id="zkfFHV4jXpPFQw0GAbJ--18" value="- id : Long" style="text;align=left;verticalAlign=top;spacingLeft=4;spacingRight=4;overflow=hidden;rotatable=0;points=[[0,0.5],[1,0.5]];portConstraint=eastwest;fontStyle=1;fontFamily=Georgia;" parent="zkfFHV4jXpPFQw0GAbJ--17" vertex="1"><mxGeometry y="26" width="432" height="26" as="geometry"/></mxCell><mxCell id="BWUM53f2K833biKBtzKt-0" value="- name : String" style="text;align=left;verticalAlign=top;spacingLeft=4;spacingRight=4;overflow=hidden;rotatable=0;points=[[0,0.5],[1,0.5]];portConstraint=eastwest;fontStyle=1;fontFamily=Georgia;" parent="zkfFHV4jXpPFQw0GAbJ--17" vertex="1"><mxGeometry y="52" width="432" height="26" as="geometry"/></mxCell><mxCell id="BWUM53f2K833biKBtzKt-2" value="- lastName : String" style="text;align=left;verticalAlign=top;spacingLeft=4;spacingRight=4;overflow=hidden;rotatable=0;points=[[0,0.5],[1,0.5]];portConstraint=eastwest;fontStyle=1;fontFamily=Georgia;" parent="zkfFHV4jXpPFQw0GAbJ--17" vertex="1"><mxGeometry y="78" width="432" height="26" as="geometry"/></mxCell><mxCell id="BWUM53f2K833biKBtzKt-5" value="- city : String" style="text;align=left;verticalAlign=top;spacingLeft=4;spacingRight=4;overflow=hidden;rotatable=0;points=[[0,0.5],[1,0.5]];portConstraint=eastwest;fontStyle=1;fontFamily=Georgia;" parent="zkfFHV4jXpPFQw0GAbJ--17" vertex="1"><mxGeometry y="104" width="432" height="26" as="geometry"/></mxCell><mxCell id="BWUM53f2K833biKBtzKt-6" value="- address : String" style="text;align=left;verticalAlign=top;spacingLeft=4;spacingRight=4;overflow=hidden;rotatable=0;points=[[0,0.5],[1,0.5]];portConstraint=eastwest;fontStyle=1;fontFamily=Georgia;" parent="zkfFHV4jXpPFQw0GAbJ--17" vertex="1"><mxGeometry y="130" width="432" height="26" as="geometry"/></mxCell><mxCell id="zkfFHV4jXpPFQw0GAbJ--23" value="" style="line;html=1;strokeWidth=1;align=left;verticalAlign=middle;spacingTop=-1;spacingLeft=3;spacingRight=3;rotatable=0;labelPosition=right;points=[];portConstraint=eastwest;" parent="zkfFHV4jXpPFQw0GAbJ--17" vertex="1"><mxGeometry y="156" width="432" height="8" as="geometry"/></mxCell><mxCell id="BWUM53f2K833biKBtzKt-1" value="+ Person();" style="text;align=left;verticalAlign=top;spacingLeft=4;spacingRight=4;overflow=hidden;rotatable=0;points=[[0,0.5],[1,0.5]];portConstraint=eastwest;fontStyle=1;fontFamily=Georgia;fillColor=#647687;strokeColor=#314354;fontColor=#ffffff;" parent="zkfFHV4jXpPFQw0GAbJ--17" vertex="1"><mxGeometry y="164" width="432" height="26" as="geometry"/></mxCell><mxCell id="BWUM53f2K833biKBtzKt-7" value="+ Person(id, name, lastName, phoneNumber, email, city, address);" style="text;align=left;verticalAlign=top;spacingLeft=4;spacingRight=4;overflow=hidden;rotatable=0;points=[[0,0.5],[1,0.5]];portConstraint=eastwest;fontStyle=1;fontFamily=Georgia;fillColor=#647687;strokeColor=#314354;fontColor=#ffffff;" parent="zkfFHV4jXpPFQw0GAbJ--17" vertex="1"><mxGeometry y="190" width="432" height="26" as="geometry"/></mxCell><mxCell id="BWUM53f2K833biKBtzKt-8" value="+  getId() : Long" style="text;align=left;verticalAlign=top;spacingLeft=4;spacingRight=4;overflow=hidden;rotatable=0;points=[[0,0.5],[1,0.5]];portConstraint=eastwest;fontStyle=1;fontFamily=Georgia;" parent="zkfFHV4jXpPFQw0GAbJ--17" vertex="1"><mxGeometry y="216" width="432" height="26" as="geometry"/></mxCell><mxCell id="BWUM53f2K833biKBtzKt-9" value="+  getName() : String" style="text;align=left;verticalAlign=top;spacingLeft=4;spacingRight=4;overflow=hidden;rotatable=0;points=[[0,0.5],[1,0.5]];portConstraint=eastwest;fontStyle=1;fontFamily=Georgia;" parent="zkfFHV4jXpPFQw0GAbJ--17" vertex="1"><mxGeometry y="242" width="432" height="26" as="geometry"/></mxCell><mxCell id="BWUM53f2K833biKBtzKt-10" value="+  getLastName() : String" style="text;align=left;verticalAlign=top;spacingLeft=4;spacingRight=4;overflow=hidden;rotatable=0;points=[[0,0.5],[1,0.5]];portConstraint=eastwest;fontStyle=1;fontFamily=Georgia;" parent="zkfFHV4jXpPFQw0GAbJ--17" vertex="1"><mxGeometry y="268" width="432" height="26" as="geometry"/></mxCell><mxCell id="BWUM53f2K833biKBtzKt-11" value="+  getCity() : String" style="text;align=left;verticalAlign=top;spacingLeft=4;spacingRight=4;overflow=hidden;rotatable=0;points=[[0,0.5],[1,0.5]];portConstraint=eastwest;fontStyle=1;fontFamily=Georgia;" parent="zkfFHV4jXpPFQw0GAbJ--17" vertex="1"><mxGeometry y="294" width="432" height="26" as="geometry"/></mxCell><mxCell id="BWUM53f2K833biKBtzKt-12" value="+  getAddress() : String" style="text;align=left;verticalAlign=top;spacingLeft=4;spacingRight=4;overflow=hidden;rotatable=0;points=[[0,0.5],[1,0.5]];portConstraint=eastwest;fontStyle=1;fontFamily=Georgia;" parent="zkfFHV4jXpPFQw0GAbJ--17" vertex="1"><mxGeometry y="320" width="432" height="26" as="geometry"/></mxCell><mxCell id="BWUM53f2K833biKBtzKt-14" value="+  setId() : void" style="text;align=left;verticalAlign=top;spacingLeft=4;spacingRight=4;overflow=hidden;rotatable=0;points=[[0,0.5],[1,0.5]];portConstraint=eastwest;fontStyle=1;fontFamily=Georgia;" parent="zkfFHV4jXpPFQw0GAbJ--17" vertex="1"><mxGeometry y="346" width="432" height="26" as="geometry"/></mxCell><mxCell id="BWUM53f2K833biKBtzKt-15" value="+  setName() : void" style="text;align=left;verticalAlign=top;spacingLeft=4;spacingRight=4;overflow=hidden;rotatable=0;points=[[0,0.5],[1,0.5]];portConstraint=eastwest;fontStyle=1;fontFamily=Georgia;" parent="zkfFHV4jXpPFQw0GAbJ--17" vertex="1"><mxGeometry y="372" width="432" height="26" as="geometry"/></mxCell><mxCell id="BWUM53f2K833biKBtzKt-16" value="+  setLastName() : void" style="text;align=left;verticalAlign=top;spacingLeft=4;spacingRight=4;overflow=hidden;rotatable=0;points=[[0,0.5],[1,0.5]];portConstraint=eastwest;fontStyle=1;fontFamily=Georgia;" parent="zkfFHV4jXpPFQw0GAbJ--17" vertex="1"><mxGeometry y="398" width="432" height="26" as="geometry"/></mxCell><mxCell id="BWUM53f2K833biKBtzKt-17" value="+  setCity() : void" style="text;align=left;verticalAlign=top;spacingLeft=4;spacingRight=4;overflow=hidden;rotatable=0;points=[[0,0.5],[1,0.5]];portConstraint=eastwest;fontStyle=1;fontFamily=Georgia;" parent="zkfFHV4jXpPFQw0GAbJ--17" vertex="1"><mxGeometry y="424" width="432" height="26" as="geometry"/></mxCell><mxCell id="BWUM53f2K833biKBtzKt-18" value="+  setAddress() : void" style="text;align=left;verticalAlign=top;spacingLeft=4;spacingRight=4;overflow=hidden;rotatable=0;points=[[0,0.5],[1,0.5]];portConstraint=eastwest;fontStyle=1;fontFamily=Georgia;" parent="zkfFHV4jXpPFQw0GAbJ--17" vertex="1"><mxGeometry y="450" width="432" height="26" as="geometry"/></mxCell><mxCell id="BWUM53f2K833biKBtzKt-23" value="" style="endArrow=block;endSize=10;endFill=0;shadow=0;strokeWidth=1;rounded=0;edgeStyle=elbowEdgeStyle;elbow=vertical;entryX=0.499;entryY=1.098;entryDx=0;entryDy=0;entryPerimeter=0;" parent="WIyWlLk6GJQsqaUBKTNV-1" target="BWUM53f2K833biKBtzKt-18" edge="1"><mxGeometry width="160" relative="1" as="geometry"><mxPoint x="724.62" y="530" as="sourcePoint"/><mxPoint x="724.62" y="469" as="targetPoint"/></mxGeometry></mxCell><mxCell id="BWUM53f2K833biKBtzKt-26" value="Pocket" style="swimlane;fontStyle=3;align=center;verticalAlign=top;childLayout=stackLayout;horizontal=1;startSize=26;horizontalStack=0;resizeParent=1;resizeLast=0;collapsible=1;marginBottom=0;rounded=0;shadow=0;strokeWidth=1;fontFamily=Georgia;" parent="WIyWlLk6GJQsqaUBKTNV-1" vertex="1"><mxGeometry x="645" y="1502" width="160" height="242" as="geometry"><mxRectangle x="130" y="380" width="160" height="26" as="alternateBounds"/></mxGeometry></mxCell><mxCell id="BWUM53f2K833biKBtzKt-55" value="- name : String" style="text;align=left;verticalAlign=top;spacingLeft=4;spacingRight=4;overflow=hidden;rotatable=0;points=[[0,0.5],[1,0.5]];portConstraint=eastwest;fontStyle=1;fontFamily=Georgia;" parent="BWUM53f2K833biKBtzKt-26" vertex="1"><mxGeometry y="26" width="160" height="26" as="geometry"/></mxCell><mxCell id="BWUM53f2K833biKBtzKt-56" value="- balance : double" style="text;align=left;verticalAlign=top;spacingLeft=4;spacingRight=4;overflow=hidden;rotatable=0;points=[[0,0.5],[1,0.5]];portConstraint=eastwest;fontStyle=1;fontFamily=Georgia;" parent="BWUM53f2K833biKBtzKt-26" vertex="1"><mxGeometry y="52" width="160" height="26" as="geometry"/></mxCell><mxCell id="BWUM53f2K833biKBtzKt-29" value="" style="line;html=1;strokeWidth=1;align=left;verticalAlign=middle;spacingTop=-1;spacingLeft=3;spacingRight=3;rotatable=0;labelPosition=right;points=[];portConstraint=eastwest;" parent="BWUM53f2K833biKBtzKt-26" vertex="1"><mxGeometry y="78" width="160" height="8" as="geometry"/></mxCell><mxCell id="BWUM53f2K833biKBtzKt-57" value="+ Pocket();" style="text;align=left;verticalAlign=top;spacingLeft=4;spacingRight=4;overflow=hidden;rotatable=0;points=[[0,0.5],[1,0.5]];portConstraint=eastwest;fontStyle=1;fontFamily=Georgia;fillColor=#a0522d;strokeColor=#6D1F00;fontColor=#ffffff;" parent="BWUM53f2K833biKBtzKt-26" vertex="1"><mxGeometry y="86" width="160" height="26" as="geometry"/></mxCell><mxCell id="BWUM53f2K833biKBtzKt-58" value="+ Pocket(name);" style="text;align=left;verticalAlign=top;spacingLeft=4;spacingRight=4;overflow=hidden;rotatable=0;points=[[0,0.5],[1,0.5]];portConstraint=eastwest;fontStyle=1;fontFamily=Georgia;fillColor=#a0522d;strokeColor=#6D1F00;fontColor=#ffffff;" parent="BWUM53f2K833biKBtzKt-26" vertex="1"><mxGeometry y="112" width="160" height="26" as="geometry"/></mxCell><mxCell id="BWUM53f2K833biKBtzKt-54" value="+ getName() : String" style="text;align=left;verticalAlign=top;spacingLeft=4;spacingRight=4;overflow=hidden;rotatable=0;points=[[0,0.5],[1,0.5]];portConstraint=eastwest;fontStyle=1;fontFamily=Georgia;" parent="BWUM53f2K833biKBtzKt-26" vertex="1"><mxGeometry y="138" width="160" height="26" as="geometry"/></mxCell><mxCell id="BWUM53f2K833biKBtzKt-61" value="+ getBalance() : double" style="text;align=left;verticalAlign=top;spacingLeft=4;spacingRight=4;overflow=hidden;rotatable=0;points=[[0,0.5],[1,0.5]];portConstraint=eastwest;fontStyle=1;fontFamily=Georgia;" parent="BWUM53f2K833biKBtzKt-26" vertex="1"><mxGeometry y="164" width="160" height="26" as="geometry"/></mxCell><mxCell id="BWUM53f2K833biKBtzKt-60" value="+ setName() : void" style="text;align=left;verticalAlign=top;spacingLeft=4;spacingRight=4;overflow=hidden;rotatable=0;points=[[0,0.5],[1,0.5]];portConstraint=eastwest;fontStyle=1;fontFamily=Georgia;" parent="BWUM53f2K833biKBtzKt-26" vertex="1"><mxGeometry y="190" width="160" height="26" as="geometry"/></mxCell><mxCell id="BWUM53f2K833biKBtzKt-59" value="+ setBalance() : void" style="text;align=left;verticalAlign=top;spacingLeft=4;spacingRight=4;overflow=hidden;rotatable=0;points=[[0,0.5],[1,0.5]];portConstraint=eastwest;fontStyle=1;fontFamily=Georgia;" parent="BWUM53f2K833biKBtzKt-26" vertex="1"><mxGeometry y="216" width="160" height="26" as="geometry"/></mxCell><mxCell id="BWUM53f2K833biKBtzKt-37" value="" style="endArrow=diamondThin;endFill=1;endSize=24;html=1;rounded=0;entryX=0.5;entryY=0;entryDx=0;entryDy=0;exitX=0.5;exitY=1.051;exitDx=0;exitDy=0;exitPerimeter=0;" parent="WIyWlLk6GJQsqaUBKTNV-1" source="KezSRkCDhF_rc3mnY4O1-3" target="zkfFHV4jXpPFQw0GAbJ--6" edge="1"><mxGeometry width="160" relative="1" as="geometry"><mxPoint x="725" y="870" as="sourcePoint"/><mxPoint x="770" y="952" as="targetPoint"/></mxGeometry></mxCell><mxCell id="BWUM53f2K833biKBtzKt-38" value="1" style="text;align=center;fontStyle=1;verticalAlign=middle;spacingLeft=3;spacingRight=3;strokeColor=none;rotatable=0;points=[[0,0.5],[1,0.5]];portConstraint=eastwest;html=1;" parent="WIyWlLk6GJQsqaUBKTNV-1" vertex="1"><mxGeometry x="730" y="850" width="20" height="22" as="geometry"/></mxCell><mxCell id="BWUM53f2K833biKBtzKt-39" value="0 .. 1" style="text;align=center;fontStyle=1;verticalAlign=middle;spacingLeft=3;spacingRight=3;strokeColor=none;rotatable=0;points=[[0,0.5],[1,0.5]];portConstraint=eastwest;html=1;" parent="WIyWlLk6GJQsqaUBKTNV-1" vertex="1"><mxGeometry x="740" y="942" width="30" height="20" as="geometry"/></mxCell><mxCell id="BWUM53f2K833biKBtzKt-40" value="" style="endArrow=diamondThin;endFill=0;endSize=24;html=1;rounded=0;exitX=0.5;exitY=0;exitDx=0;exitDy=0;entryX=0.5;entryY=1;entryDx=0;entryDy=0;" parent="WIyWlLk6GJQsqaUBKTNV-1" source="BWUM53f2K833biKBtzKt-26" target="zkfFHV4jXpPFQw0GAbJ--6" edge="1"><mxGeometry width="160" relative="1" as="geometry"><mxPoint x="724.85" y="1489.31" as="sourcePoint"/><mxPoint x="725" y="1362" as="targetPoint"/></mxGeometry></mxCell><mxCell id="BWUM53f2K833biKBtzKt-41" value="1" style="text;align=center;fontStyle=1;verticalAlign=middle;spacingLeft=3;spacingRight=3;strokeColor=none;rotatable=0;points=[[0,0.5],[1,0.5]];portConstraint=eastwest;html=1;" parent="WIyWlLk6GJQsqaUBKTNV-1" vertex="1"><mxGeometry x="730" y="1386" width="20" height="22" as="geometry"/></mxCell><mxCell id="BWUM53f2K833biKBtzKt-42" value="0 .. *" style="text;align=center;fontStyle=1;verticalAlign=middle;spacingLeft=3;spacingRight=3;strokeColor=none;rotatable=0;points=[[0,0.5],[1,0.5]];portConstraint=eastwest;html=1;" parent="WIyWlLk6GJQsqaUBKTNV-1" vertex="1"><mxGeometry x="730" y="1482" width="30" height="20" as="geometry"/></mxCell></root></mxGraphModel></diagram></mxfile>
>>>>>>> main
